PathFileType	3	(X/Y/Z)	feet_movements_1__fused_aligned.trc
DataRate	CameraRate	NumFrames	NumMarkers	Units	OrigDataRate	OrigDataStartFrame	OrigNumFrames
100.0	100.0	15	19	mm	100.0	409	1830
Frame#	Time	pelvis			neck			head			hip_left			hip_right			knee_left			knee_right			ankle_left			ankle_right			heel_left			heel_right			toe_left			toe_right			shoulder_left			shoulder_right			elbow_left			elbow_right			wrist_left			wrist_right			
		X1	Y1	Z1	X2	Y2	Z2	X3	Y3	Z3	X4	Y4	Z4	X5	Y5	Z5	X6	Y6	Z6	X7	Y7	Z7	X8	Y8	Z8	X9	Y9	Z9	X10	Y10	Z10	X11	Y11	Z11	X12	Y12	Z12	X13	Y13	Z13	X14	Y14	Z14	X15	Y15	Z15	X16	Y16	Z16	X17	Y17	Z17	X18	Y18	Z18	X19	Y19	Z19	
409	4.08000	100.115785	939.847705	355.948841	137.128873	1407.497715	613.880853	161.783738	1560.587606	551.356127	31.534772	968.132126	327.666866	168.696862	911.563281	384.230903	58.660417	1130.645189	-72.679167	251.946199	513.650513	236.975065	-23.480527	950.020169	-424.439128	136.774769	155.365688	389.618600	-41.350749	898.359792	-434.603443	110.966721	118.825450	430.563234	24.807493	1005.312603	-613.889581	200.405649	62.257333	238.163315	-38.779945	1379.018990	578.196967	301.854382	1337.473876	670.119614	-203.077054	1198.769497	422.127428	441.079427	1121.343627	540.012742	-305.110606	1103.548308	219.428065	531.190350	1076.643059	309.222011
410	4.09000	100.278620	940.189459	354.826651	137.172029	1406.997203	613.710398	161.751737	1560.176959	551.686248	31.763106	968.529307	326.486181	168.794180	911.849609	383.167239	58.434276	1130.699177	-73.872891	252.951845	514.279419	235.754594	-24.128845	953.396545	-427.244672	137.578437	156.043738	387.917787	-42.106960	901.877321	-437.683862	111.644870	119.585250	428.814139	24.221854	1009.326937	-616.457259	201.362854	62.524527	236.735432	-38.649399	1378.752137	577.657908	301.685735	1336.945257	670.174169	-202.438280	1198.454539	421.249931	440.825682	1120.795782	540.287856	-303.902837	1102.974785	218.567094	531.882889	1076.388686	309.733603
411	4.10000	100.441455	940.531213	353.704462	137.215184	1406.496691	613.539942	161.719736	1559.766312	552.016368	31.991440	968.926487	325.305496	168.891499	912.135938	382.103574	58.208136	1130.753165	-75.066615	253.957491	514.908325	234.534123	-24.777163	956.772920	-430.050215	138.382106	156.721787	386.216975	-42.863172	905.394850	-440.764281	112.323018	120.345051	427.065043	23.636214	1013.341272	-619.024936	202.320060	62.791721	235.307549	-38.518854	1378.485284	577.118848	301.517087	1336.416637	670.228723	-201.799505	1198.139582	420.372435	440.571938	1120.247937	540.562971	-302.695069	1102.401262	217.706122	532.575427	1076.134313	310.245195
412	4.11000	100.144453	940.843589	352.636673	137.149578	1405.990090	613.210325	161.815534	1559.300744	552.239985	31.761666	969.307781	324.162016	168.527222	912.379400	381.111474	57.355862	1130.488585	-76.479319	254.676669	515.382145	233.569026	-25.605689	959.468237	-432.654087	138.876863	157.157275	384.886581	-43.695691	908.188366	-443.718074	112.685374	120.833918	425.666462	22.699802	1017.274460	-621.202181	203.083493	62.953003	234.261985	-38.513188	1378.400310	576.500083	301.149604	1335.862847	670.161486	-201.906149	1198.302226	419.791916	440.190207	1119.712804	540.852654	-302.938868	1102.167279	217.394275	533.172501	1075.703601	310.888766
413	4.12000	99.847452	941.155966	351.568885	137.083972	1405.483490	612.880709	161.911332	1558.835176	552.463601	31.531892	969.689076	323.018536	168.162945	912.622861	380.119374	56.503587	1130.224004	-77.892022	255.395847	515.855965	232.603929	-26.434216	962.163554	-435.257959	139.371620	157.592762	383.556187	-44.528211	910.981882	-446.671868	113.047729	121.322786	424.267881	21.763390	1021.207648	-623.379427	203.846925	63.114286	233.216422	-38.507522	1378.315336	575.881318	300.782121	1335.309056	670.094248	-202.012792	1198.464869	419.211397	439.808476	1119.177671	541.142337	-303.182666	1101.933295	217.082428	533.769575	1075.272889	311.532336
414	4.13000	99.550450	941.468343	350.501097	137.018367	1404.976889	612.551092	162.007130	1558.369608	552.687218	31.302119	970.070370	321.875056	167.798667	912.866323	379.127274	55.651312	1129.959424	-79.304726	256.115025	516.329785	231.638832	-27.262742	964.858871	-437.861831	139.866377	158.028250	382.225793	-45.360731	913.775397	-449.625661	113.410084	121.811653	422.869300	20.826978	1025.140836	-625.556672	204.610358	63.275569	232.170858	-38.501856	1378.230361	575.262552	300.414638	1334.755266	670.027010	-202.119436	1198.627513	418.630878	439.426745	1118.642539	541.432020	-303.426464	1101.699311	216.770581	534.366649	1074.842178	312.175906
415	4.14000	99.253448	941.780720	349.433309	136.952761	1404.470288	612.221476	162.102928	1557.904040	552.910834	31.072345	970.451664	320.731576	167.434390	913.109785	378.135174	54.799038	1129.694844	-80.717430	256.834204	516.803605	230.673736	-28.091269	967.554188	-440.465703	140.361135	158.463737	380.895399	-46.193251	916.568913	-452.579455	113.772439	122.300520	421.470719	19.890565	1029.074024	-627.733917	205.373791	63.436851	231.125294	-38.496190	1378.145387	574.643787	300.047155	1334.201476	669.959772	-202.226079	1198.790156	418.050360	439.045015	1118.107406	541.721703	-303.670263	1101.465328	216.458734	534.963723	1074.411466	312.819477
416	4.15000	98.956447	942.093096	348.365521	136.887156	1403.963688	611.891859	162.198726	1557.438473	553.134450	30.842571	970.832958	319.588097	167.070113	913.353247	377.143074	53.946763	1129.430264	-82.130133	257.553382	517.277425	229.708639	-28.919795	970.249505	-443.069576	140.855892	158.899225	379.565005	-47.025770	919.362429	-455.533249	114.134794	122.789388	420.072138	18.954153	1033.007213	-629.911162	206.137223	63.598134	230.079730	-38.490524	1378.060413	574.025022	299.679672	1333.647685	669.892534	-202.332722	1198.952800	417.469841	438.663284	1117.572274	542.011387	-303.914061	1101.231344	216.146887	535.560797	1073.980754	313.463047
417	4.16000	98.659445	942.405473	347.297733	136.821550	1403.457087	611.562243	162.294525	1556.972905	553.358067	30.612797	971.214253	318.444617	166.705836	913.596709	376.150974	53.094488	1129.165684	-83.542837	258.272560	517.751245	228.743542	-29.748322	972.944822	-445.673448	141.350649	159.334712	378.234611	-47.858290	922.155945	-458.487042	114.497149	123.278255	418.673556	18.017741	1036.940401	-632.088407	206.900656	63.759417	229.034166	-38.484859	1377.975439	573.406256	299.312189	1333.093895	669.825297	-202.439366	1199.115443	416.889322	438.281553	1117.037141	542.301070	-304.157860	1100.997360	215.835040	536.157871	1073.550042	314.106618
418	4.17000	98.362443	942.717850	346.229944	136.755944	1402.950487	611.232626	162.390323	1556.507337	553.581683	30.383023	971.595547	317.301137	166.341559	913.840171	375.158874	52.242214	1128.901104	-84.955541	258.991738	518.225065	227.778445	-30.576848	975.640139	-448.277320	141.845406	159.770200	376.904217	-48.690810	924.949461	-461.440836	114.859505	123.767122	417.274975	17.081329	1040.873589	-634.265653	207.664088	63.920700	227.988602	-38.479193	1377.890464	572.787491	298.944706	1332.540104	669.758059	-202.546009	1199.278087	416.308803	437.899822	1116.502009	542.590753	-304.401658	1100.763377	215.523193	536.754945	1073.119330	314.750188
419	4.18000	98.065441	943.030226	345.162156	136.690339	1402.443886	610.903010	162.486121	1556.041769	553.805300	30.153249	971.976841	316.157657	165.977282	914.083633	374.166774	51.389939	1128.636524	-86.368245	259.710916	518.698885	226.813348	-31.405375	978.335456	-450.881192	142.340163	160.205688	375.573823	-49.523330	927.742977	-464.394629	115.221860	124.255990	415.876394	16.144917	1044.806777	-636.442898	208.427521	64.081982	226.943038	-38.473527	1377.805490	572.168726	298.577224	1331.986314	669.690821	-202.652653	1199.440730	415.728284	437.518091	1115.966876	542.880436	-304.645457	1100.529393	215.211346	537.352019	1072.688619	315.393759
420	4.19000	97.768440	943.342603	344.094368	136.624733	1401.937285	610.573393	162.581919	1555.576201	554.028916	29.923475	972.358136	315.014177	165.613005	914.327095	373.174674	50.537664	1128.371944	-87.780948	260.430095	519.172705	225.848251	-32.233901	981.030773	-453.485064	142.834920	160.641175	374.243429	-50.355849	930.536493	-467.348423	115.584215	124.744857	414.477813	15.208505	1048.739965	-638.620143	209.190954	64.243265	225.897474	-38.467861	1377.720516	571.549961	298.209741	1331.432523	669.623583	-202.759296	1199.603374	415.147765	437.136360	1115.431744	543.170119	-304.889255	1100.295409	214.899499	537.949093	1072.257907	316.037329
421	4.20000	97.471438	943.654980	343.026580	136.559128	1401.430685	610.243777	162.677717	1555.110633	554.252533	29.693701	972.739430	313.870697	165.248728	914.570557	372.182574	49.685389	1128.107364	-89.193652	261.149273	519.646525	224.883155	-33.062428	983.726090	-456.088936	143.329677	161.076663	372.913035	-51.188369	933.330009	-470.302216	115.946570	125.233724	413.079232	14.272092	1052.673154	-640.797388	209.954386	64.404548	224.851910	-38.462195	1377.635542	570.931195	297.842258	1330.878733	669.556345	-202.865940	1199.766017	414.567247	436.754629	1114.896611	543.459803	-305.133054	1100.061426	214.587652	538.546167	1071.827195	316.680900
422	4.21000	96.708901	944.122352	342.653332	136.006658	1401.238994	610.493641	162.333518	1554.941002	555.019750	28.982617	973.305895	313.379843	164.434779	914.938833	371.926903	48.862893	1128.536378	-89.830366	261.216782	520.112465	224.785995	-33.516710	985.559510	-457.353830	143.290551	161.414008	372.361001	-51.618120	935.203924	-471.732594	115.785900	125.612855	412.456243	13.869115	1055.023589	-641.853756	210.272076	64.488905	224.600006	-38.936640	1377.873633	570.815794	296.983726	1330.586016	670.105750	-203.679743	1200.281134	414.722767	435.995152	1114.706566	544.265740	-306.371640	1100.200265	215.087375	538.610238	1071.687508	317.837373
423	4.22000	95.946364	944.589725	342.280083	135.454188	1401.047302	610.743505	161.989319	1554.771371	555.786967	28.271534	973.872360	312.888989	163.620831	915.307110	371.671233	48.040397	1128.965393	-90.467080	261.284291	520.578405	224.688835	-33.970992	987.392931	-458.618724	143.251425	161.751353	371.808968	-52.047871	937.077840	-473.162972	115.625230	125.991987	411.833253	13.466137	1057.374025	-642.910124	210.589765	64.573263	224.348102	-39.411085	1378.111725	570.700394	296.125195	1330.293299	670.655155	-204.493547	1200.796252	414.878288	435.235674	1114.516521	545.071678	-307.610226	1100.339104	215.587098	538.674309	1071.547822	318.993846
